<svg xmlns="http://www.w3.org/2000/svg" width="182" height="21" viewBox="0 0 182 21">
  <defs>
    <style>
      .cls-1 {
        fill: #e7526b;
      }

      .cls-1, .cls-2 {
        fill-rule: evenodd;
      }

      .cls-2 {
        fill: #fff;
      }
    </style>
  </defs>
  <path id="pex" class="cls-1" d="M7.211,1.242L6.6,0.961,2,1.571,1.773,2.5,3.145,3.082,0.8,20.684H4.527l0.832-5.965a6.531,6.531,0,0,0,1.184.105,7.266,7.266,0,0,0,5.742-2.555,8.454,8.454,0,0,0,1.594-2.783,9.4,9.4,0,0,0,.563-3.129,9.734,9.734,0,0,0-.258-2.478A3.614,3.614,0,0,0,10.352.961,4.534,4.534,0,0,0,7.094,2.227ZM6.848,4.148A2.3,2.3,0,0,1,8.606,3.012a1.337,1.337,0,0,1,.844.246,3.356,3.356,0,0,1,.938,2.789,12.933,12.933,0,0,1-.8,4.91A4.4,4.4,0,0,1,8.506,12.58a2.257,2.257,0,0,1-1.57.615,4.008,4.008,0,0,1-1.33-.164Zm13.8,7.758a4.643,4.643,0,0,1-.586-2.649A10.6,10.6,0,0,0,23.277,8.7,8.367,8.367,0,0,0,24.842,8a5.806,5.806,0,0,0,1.307-1.014,4.225,4.225,0,0,0,.867-1.324,3.987,3.987,0,0,0,.3-1.535,3.5,3.5,0,0,0-.258-1.395q-0.785-1.769-3.6-1.769a6.961,6.961,0,0,0-5.414,2.426,8.749,8.749,0,0,0-2.191,6.094v0.07a6.291,6.291,0,0,0,.5,2.555,4.85,4.85,0,0,0,.656,1.084,3.9,3.9,0,0,0,.973.861,4.857,4.857,0,0,0,1.318.568,6.75,6.75,0,0,0,1.775.205,6.583,6.583,0,0,0,1.945-.281A6.057,6.057,0,0,0,26.5,12.106L25.75,10.9a4.254,4.254,0,0,1-3.492,1.828A1.868,1.868,0,0,1,20.652,11.906Zm2.906-7.7a3.351,3.351,0,0,1-1.2,2.66,3.87,3.87,0,0,1-2.3.984q0.34-5.274,2.531-5.274Q23.558,2.578,23.559,4.207Zm13.559,6.879L35.254,7.711l5.238-6.656H36.918l-2.6,4.09-1-2.953Q32.934,0.961,31.129.961a5.455,5.455,0,0,0-1.477.176,4.061,4.061,0,0,0-2.2,1.16l0.457,0.984a1.814,1.814,0,0,1,.938-0.223,0.968,0.968,0,0,1,.715.633l0.2,0.34,1.934,3.68L26.266,14.59h3.691l2.73-4.371,1.16,3.375a1.958,1.958,0,0,0,2.086,1.23,5.225,5.225,0,0,0,1.629-.234,4.345,4.345,0,0,0,2.414-1.559l-0.527-.984a1.971,1.971,0,0,1-.961.445,0.959,0.959,0,0,1-.639-0.275,3.942,3.942,0,0,1-.732-1.131h0Z"/>
  <path id="Photoshop_Website_template" data-name="Photoshop Website template" class="cls-2" d="M54.92,7.728A2.765,2.765,0,0,0,55.8,5.594V5.511q-0.029-1.9-2.231-1.9l-1.392.083H50.94l-0.058.493L51.531,4.3l-0.786,6.3-0.723.146-0.044.42H52.63l0.039-.425-0.957-.142,0.249-2.109q0.254,0.02.464,0.02H52.8a3,3,0,0,0,2.119-.776h0ZM52.5,4.29a5.589,5.589,0,0,1,1.025-.1,1.055,1.055,0,0,1,1.206.791,3.584,3.584,0,0,1,.054.7,3.945,3.945,0,0,1-.112.911Q54.28,8.231,52.034,7.85Zm8.669,6.646A1.13,1.13,0,0,0,61.5,10.6l-0.151-.254a1.053,1.053,0,0,1-.522.273,0.163,0.163,0,0,1-.105-0.161,4.242,4.242,0,0,1,.1-0.991l0.127-.776,0.142-.752A5.212,5.212,0,0,0,61.2,6.956a1.773,1.773,0,0,0-.3-1.147,0.79,0.79,0,0,0-.344-0.252,1.354,1.354,0,0,0-.474-0.076,1.734,1.734,0,0,0-.549.093,3.073,3.073,0,0,0-1.445,1.138l0.464-3.477L58.292,3.1l-1.3.205-0.083.405,0.576,0.21L56.543,11.16h0.947L57.979,7.5a3.7,3.7,0,0,1,.835-0.888,2.144,2.144,0,0,1,.439-0.261,1.125,1.125,0,0,1,.452-0.1,0.487,0.487,0,0,1,.349.112,0.529,0.529,0,0,1,.122.229,1.931,1.931,0,0,1,.044.488,6.161,6.161,0,0,1-.1.933q-0.039.264-.088,0.515t-0.085.461q-0.037.21-.127,0.708a7.64,7.64,0,0,0-.115.918,0.531,0.531,0,0,0,.6.64,1.572,1.572,0,0,0,.859-0.322h0Zm3.276,0.322a2.279,2.279,0,0,0,.8-0.137,2.777,2.777,0,0,0,1.24-.967,3.9,3.9,0,0,0,.757-2.378,2.55,2.55,0,0,0-.513-1.7,1.633,1.633,0,0,0-.606-0.439,2.009,2.009,0,0,0-.793-0.151,2.208,2.208,0,0,0-.8.142,2.674,2.674,0,0,0-1.235.962,3.885,3.885,0,0,0-.757,2.344,2.1,2.1,0,0,0,1.113,2.178A2.009,2.009,0,0,0,64.444,11.258Zm-0.9-2.324a4.593,4.593,0,0,1,.361-1.86,2.38,2.38,0,0,1,.31-0.515,1.421,1.421,0,0,1,.405-0.352,0.994,0.994,0,0,1,.5-0.129,0.95,0.95,0,0,1,.474.112,1.72,1.72,0,0,1,.625,1.616,4.593,4.593,0,0,1-.361,1.86,2.368,2.368,0,0,1-.31.515,1.415,1.415,0,0,1-.405.352,0.991,0.991,0,0,1-.5.129,0.921,0.921,0,0,1-.474-0.117,1.707,1.707,0,0,1-.625-1.611h0Zm6.306,2.256a2.224,2.224,0,0,0,1.1-.64l-0.088-.381a2.756,2.756,0,0,1-.449.263,1.974,1.974,0,0,1-.264.105,1.026,1.026,0,0,1-.305.041,0.31,0.31,0,0,1-.251-0.093,0.279,0.279,0,0,1-.061-0.136,1.758,1.758,0,0,1-.017-0.3,7.047,7.047,0,0,1,.083-0.8L70.005,6.2H71.27l0.1-.679H70.088l0.166-1.274H69.79a5.05,5.05,0,0,1-.65,1.3l-0.6.229-0.1.425h0.586L68.584,9.734a5.7,5.7,0,0,0-.059.6v0.054a0.781,0.781,0,0,0,.894.874,1.523,1.523,0,0,0,.435-0.068h0Zm3.96,0.068a2.279,2.279,0,0,0,.8-0.137,2.777,2.777,0,0,0,1.24-.967,3.9,3.9,0,0,0,.757-2.378,2.55,2.55,0,0,0-.513-1.7A1.631,1.631,0,0,0,75.5,5.633,2.008,2.008,0,0,0,74.7,5.481a2.207,2.207,0,0,0-.8.142,2.674,2.674,0,0,0-1.235.962,3.884,3.884,0,0,0-.757,2.344,2.1,2.1,0,0,0,1.113,2.178A2.009,2.009,0,0,0,73.814,11.258Zm-0.9-2.324a4.591,4.591,0,0,1,.361-1.86,2.377,2.377,0,0,1,.31-0.515,1.418,1.418,0,0,1,.405-0.352,0.994,0.994,0,0,1,.5-0.129,0.951,0.951,0,0,1,.474.112,1.72,1.72,0,0,1,.625,1.616,4.594,4.594,0,0,1-.361,1.86,2.376,2.376,0,0,1-.31.515,1.418,1.418,0,0,1-.405.352,0.992,0.992,0,0,1-.5.129,0.921,0.921,0,0,1-.474-0.117,1.707,1.707,0,0,1-.625-1.611h0Zm4.451,2.036a0.711,0.711,0,0,0,.215.108,3.6,3.6,0,0,0,1.221.181,2.212,2.212,0,0,0,1.348-.4,1.458,1.458,0,0,0,.427-0.486,1.562,1.562,0,0,0,.159-0.752,1.623,1.623,0,0,0-.4-0.974,4.215,4.215,0,0,0-.7-0.64,1.572,1.572,0,0,1-.776-1.128,0.689,0.689,0,0,1,.327-0.635,0.826,0.826,0,0,1,.278-0.107,1.81,1.81,0,0,1,.344-0.03,1.6,1.6,0,0,1,.388.049,1.2,1.2,0,0,1,.684.317l0.186-.815a2.712,2.712,0,0,0-.366-0.1,3.933,3.933,0,0,0-.884-0.076,2.064,2.064,0,0,0-1.313.425,1.545,1.545,0,0,0-.413.5,1.572,1.572,0,0,0-.154.735,1.618,1.618,0,0,0,.381.95,2.742,2.742,0,0,0,.337.369,4.043,4.043,0,0,0,.32.264q0.144,0.105.3,0.232a1.23,1.23,0,0,1,.542.942,0.6,0.6,0,0,1-.327.591,0.944,0.944,0,0,1-.317.093,3.148,3.148,0,0,1-.359.019,2.324,2.324,0,0,1-.388-0.034,2.291,2.291,0,0,1-.889-0.332Zm9.343-.034a1.13,1.13,0,0,0,.337-0.332L86.9,10.35a1.053,1.053,0,0,1-.523.273,0.163,0.163,0,0,1-.1-0.161,4.23,4.23,0,0,1,.1-0.991l0.127-.776,0.142-.752a5.228,5.228,0,0,0,.107-0.986,1.773,1.773,0,0,0-.3-1.147,0.79,0.79,0,0,0-.344-0.252,1.353,1.353,0,0,0-.474-0.076,1.734,1.734,0,0,0-.549.093,3.074,3.074,0,0,0-1.445,1.138l0.464-3.477L83.835,3.1l-1.3.205-0.083.405,0.576,0.21L82.087,11.16h0.947L83.523,7.5a3.7,3.7,0,0,1,.835-0.888,2.145,2.145,0,0,1,.44-0.261,1.125,1.125,0,0,1,.452-0.1,0.487,0.487,0,0,1,.349.112,0.53,0.53,0,0,1,.122.229,1.933,1.933,0,0,1,.044.488,6.145,6.145,0,0,1-.1.933q-0.039.264-.088,0.515t-0.085.461q-0.037.21-.127,0.708a7.684,7.684,0,0,0-.115.918,0.532,0.532,0,0,0,.6.64,1.571,1.571,0,0,0,.859-0.322h0Zm3.276,0.322a2.279,2.279,0,0,0,.8-0.137,2.777,2.777,0,0,0,1.24-.967,3.9,3.9,0,0,0,.757-2.378,2.55,2.55,0,0,0-.513-1.7,1.632,1.632,0,0,0-.605-0.439,2.009,2.009,0,0,0-.793-0.151,2.208,2.208,0,0,0-.8.142,2.674,2.674,0,0,0-1.235.962,3.884,3.884,0,0,0-.757,2.344,2.1,2.1,0,0,0,1.113,2.178A2.009,2.009,0,0,0,89.988,11.258Zm-0.9-2.324a4.593,4.593,0,0,1,.361-1.86,2.38,2.38,0,0,1,.31-0.515,1.42,1.42,0,0,1,.405-0.352,0.994,0.994,0,0,1,.5-0.129,0.951,0.951,0,0,1,.474.112,1.72,1.72,0,0,1,.625,1.616,4.594,4.594,0,0,1-.361,1.86,2.376,2.376,0,0,1-.31.515,1.416,1.416,0,0,1-.405.352,0.991,0.991,0,0,1-.5.129,0.921,0.921,0,0,1-.474-0.117,1.707,1.707,0,0,1-.625-1.611h0Zm8.66,1.055a4.042,4.042,0,0,0,.82-2.393,2.536,2.536,0,0,0-.405-1.514,1.454,1.454,0,0,0-1.255-.6A1.79,1.79,0,0,0,95.5,6.2l0.088-.6-0.23-.117-1.279.254-0.088.386L94.519,6.37,93.528,13.7h0.928L94.8,11.18a3.617,3.617,0,0,0,.757.078,2.241,2.241,0,0,0,.815-0.166,3.031,3.031,0,0,0,1.377-1.1h0ZM95.383,7.015a2.334,2.334,0,0,1,.259-0.293A1.593,1.593,0,0,1,96.75,6.18a0.67,0.67,0,0,1,.6.383,2.153,2.153,0,0,1,.22,1.065,4.439,4.439,0,0,1-.21,1.345,3.821,3.821,0,0,1-.261.637,2.511,2.511,0,0,1-.376.542,1.707,1.707,0,0,1-.5.376,1.5,1.5,0,0,1-.676.139,1.121,1.121,0,0,1-.652-0.176Zm7.89,4.194h0.982l1.89-5.029,0.566,5.029H107.7l2.915-6.919,0.586-.107,0.073-.493h-2.06l-0.054.493L109.8,4.3,107.81,9.217l-0.362,1.113-0.088-1.3L106.848,4.28l0.732-.1,0.1-.493h-2.324l-0.054.493,0.576,0.093,0.068,0.591-1.684,4.5-0.274.967-0.175-1.3-0.577-4.761L104,4.183l0.054-.493h-2.276l-0.058.493,0.6,0.107Zm8.9-.923a1.131,1.131,0,0,1-.2-0.305,1.969,1.969,0,0,1-.122-0.359,1.685,1.685,0,0,1-.049-0.308c0-.081,0-0.151,0-0.21s0-.122.01-0.19a4.3,4.3,0,0,0,1.255-.254,5.208,5.208,0,0,0,.718-0.3,3.077,3.077,0,0,0,.639-0.423,2.08,2.08,0,0,0,.459-0.554,1.252,1.252,0,0,0,.176-0.628,1.48,1.48,0,0,0-.088-0.542,1.231,1.231,0,0,0-1.3-.737A2.345,2.345,0,0,0,112.211,6a3.1,3.1,0,0,0-.573.581,3.964,3.964,0,0,0-.442.735,4.345,4.345,0,0,0-.291.842,3.715,3.715,0,0,0-.112.691c-0.005.164-.007,0.316-0.007,0.457a2.332,2.332,0,0,0,.1.571,1.813,1.813,0,0,0,.967,1.2,2.122,2.122,0,0,0,.95.185,2.378,2.378,0,0,0,1.189-.352,2.2,2.2,0,0,0,.752-0.635l-0.225-.405a2.4,2.4,0,0,1-1.66.713,0.9,0.9,0,0,1-.684-0.293h0ZM112.065,7.41a3.819,3.819,0,0,1,.232-0.5,2.381,2.381,0,0,1,.3-0.435,1.415,1.415,0,0,1,.379-0.305,0.965,0.965,0,0,1,.471-0.115,0.582,0.582,0,0,1,.432.173,0.669,0.669,0,0,1,.171.491,1.107,1.107,0,0,1-.112.527,1.72,1.72,0,0,1-.7.694,3.06,3.06,0,0,1-1.407.44,4.511,4.511,0,0,1,.235-0.967h0Zm8.083,2.578a4.043,4.043,0,0,0,.821-2.393,2.538,2.538,0,0,0-.406-1.514,1.455,1.455,0,0,0-1.164-.6,1.855,1.855,0,0,0-.55.068,2.083,2.083,0,0,0-1.025.737l0.41-3.052L117.985,3.1l-1.172.19-0.1.41,0.464,0.21-0.967,7.344,0.478-.22a3.339,3.339,0,0,0,1.133.22,2.754,2.754,0,0,0,2.329-1.27h0Zm-2.436-2.876A2.353,2.353,0,0,1,118.3,6.5a1.437,1.437,0,0,1,.844-0.317,0.671,0.671,0,0,1,.6.383,2.158,2.158,0,0,1,.22,1.065,4.436,4.436,0,0,1-.21,1.345,3.867,3.867,0,0,1-.262.637,2.473,2.473,0,0,1-.376.542,1.7,1.7,0,0,1-.5.376,1.539,1.539,0,0,1-.691.139,1.053,1.053,0,0,1-.672-0.205ZM121.7,10.97a0.723,0.723,0,0,0,.215.108,3.6,3.6,0,0,0,1.221.181,2.215,2.215,0,0,0,1.348-.4,1.459,1.459,0,0,0,.427-0.486,1.56,1.56,0,0,0,.158-0.752,1.62,1.62,0,0,0-.395-0.974,4.232,4.232,0,0,0-.7-0.64,1.572,1.572,0,0,1-.777-1.128,0.688,0.688,0,0,1,.328-0.635,0.819,0.819,0,0,1,.278-0.107,1.805,1.805,0,0,1,.344-0.03,1.593,1.593,0,0,1,.388.049,1.2,1.2,0,0,1,.684.317l0.185-.815a2.7,2.7,0,0,0-.366-0.1,3.935,3.935,0,0,0-.884-0.076,2.063,2.063,0,0,0-1.313.425,1.547,1.547,0,0,0-.413.5,1.578,1.578,0,0,0-.154.735,1.617,1.617,0,0,0,.381.95,2.8,2.8,0,0,0,.337.369c0.118,0.106.224,0.194,0.32,0.264s0.2,0.147.3,0.232a1.229,1.229,0,0,1,.542.942,0.6,0.6,0,0,1-.327.591,0.937,0.937,0,0,1-.317.093,3.152,3.152,0,0,1-.359.019,2.321,2.321,0,0,1-.388-0.034,2.291,2.291,0,0,1-.889-0.332Zm6.756-6.8a0.741,0.741,0,0,0,.229-0.532,0.5,0.5,0,0,0-.342-0.493,0.848,0.848,0,0,0-.3-0.044,0.638,0.638,0,0,0-.415.21,0.676,0.676,0,0,0-.24.513,0.519,0.519,0,0,0,.337.513,0.563,0.563,0,0,0,.235.049,0.7,0.7,0,0,0,.5-0.215h0Zm-0.8,7a1.728,1.728,0,0,0,.776-0.62l-0.156-.259a0.955,0.955,0,0,1-.523.327c-0.081,0-.122-0.07-0.122-0.21a1.024,1.024,0,0,1,.015-0.161L128.327,5.6l-0.239-.117-1.475.249-0.088.4,0.723,0.249-0.454,2.988a10.648,10.648,0,0,0-.162,1.338,0.515,0.515,0,0,0,.606.557,1.036,1.036,0,0,0,.42-0.088h0Zm3.474,0.02a2.221,2.221,0,0,0,1.1-.64l-0.087-.381a2.77,2.77,0,0,1-.45.263,1.976,1.976,0,0,1-.263.105,1.028,1.028,0,0,1-.305.041,0.311,0.311,0,0,1-.252-0.093,0.279,0.279,0,0,1-.061-0.136,1.806,1.806,0,0,1-.017-0.3,7.146,7.146,0,0,1,.083-0.8L131.283,6.2h1.265l0.1-.679h-1.28l0.166-1.274h-0.464a5.057,5.057,0,0,1-.649,1.3l-0.6.229-0.1.425h0.586l-0.445,3.535a5.643,5.643,0,0,0-.058.6v0.054a0.781,0.781,0,0,0,.893.874,1.524,1.524,0,0,0,.435-0.068h0Zm3.435-.9a1.108,1.108,0,0,1-.2-0.305,1.9,1.9,0,0,1-.122-0.359,1.6,1.6,0,0,1-.049-0.308c0-.081,0-0.151,0-0.21a1.866,1.866,0,0,1,.01-0.19,4.3,4.3,0,0,0,1.254-.254,5.158,5.158,0,0,0,.718-0.3,3.084,3.084,0,0,0,.64-0.423,2.08,2.08,0,0,0,.459-0.554,1.262,1.262,0,0,0,.176-0.628,1.5,1.5,0,0,0-.088-0.542,1.231,1.231,0,0,0-1.3-.737A2.34,2.34,0,0,0,134.606,6a3.078,3.078,0,0,0-.574.581,4.019,4.019,0,0,0-.442.735,4.343,4.343,0,0,0-.29.842,3.733,3.733,0,0,0-.113.691c0,0.164-.007.316-0.007,0.457a2.342,2.342,0,0,0,.1.571,1.81,1.81,0,0,0,.967,1.2,2.117,2.117,0,0,0,.949.185,2.375,2.375,0,0,0,1.189-.352,2.188,2.188,0,0,0,.752-0.635l-0.224-.405a2.4,2.4,0,0,1-1.661.713,0.9,0.9,0,0,1-.683-0.293h0ZM134.459,7.41a3.952,3.952,0,0,1,.232-0.5,2.435,2.435,0,0,1,.3-0.435,1.4,1.4,0,0,1,.378-0.305,0.966,0.966,0,0,1,.472-0.115,0.582,0.582,0,0,1,.432.173,0.669,0.669,0,0,1,.171.491,1.107,1.107,0,0,1-.113.527,1.714,1.714,0,0,1-.7.694,3.056,3.056,0,0,1-1.406.44,4.449,4.449,0,0,1,.234-0.967h0Zm8.062,3.779a2.221,2.221,0,0,0,1.1-.64l-0.088-.381a2.756,2.756,0,0,1-.449.263,2.031,2.031,0,0,1-.263.105,1.031,1.031,0,0,1-.306.041,0.31,0.31,0,0,1-.251-0.093,0.279,0.279,0,0,1-.061-0.136,1.7,1.7,0,0,1-.017-0.3,6.9,6.9,0,0,1,.083-0.8L142.672,6.2h1.265l0.1-.679h-1.279l0.166-1.274h-0.464a5.057,5.057,0,0,1-.649,1.3l-0.6.229-0.1.425H141.7l-0.445,3.535a5.643,5.643,0,0,0-.058.6v0.054a0.781,0.781,0,0,0,.893.874,1.524,1.524,0,0,0,.435-0.068h0Zm3.435-.9a1.111,1.111,0,0,1-.2-0.305,2.049,2.049,0,0,1-.122-0.359,1.671,1.671,0,0,1-.048-0.308c0-.081,0-0.151,0-0.21s0-.122.009-0.19a4.3,4.3,0,0,0,1.255-.254,5.208,5.208,0,0,0,.718-0.3,3.084,3.084,0,0,0,.64-0.423,2.1,2.1,0,0,0,.459-0.554,1.262,1.262,0,0,0,.176-0.628,1.5,1.5,0,0,0-.088-0.542,1.231,1.231,0,0,0-1.3-.737A2.34,2.34,0,0,0,146,6a3.078,3.078,0,0,0-.574.581,4.019,4.019,0,0,0-.442.735,4.343,4.343,0,0,0-.29.842,3.733,3.733,0,0,0-.113.691c0,0.164-.007.316-0.007,0.457a2.294,2.294,0,0,0,.1.571,1.812,1.812,0,0,0,.966,1.2,2.125,2.125,0,0,0,.95.185,2.375,2.375,0,0,0,1.189-.352,2.188,2.188,0,0,0,.752-0.635L148.3,9.866a2.4,2.4,0,0,1-1.66.713,0.9,0.9,0,0,1-.683-0.293h0ZM145.848,7.41a3.952,3.952,0,0,1,.232-0.5,2.435,2.435,0,0,1,.3-0.435,1.4,1.4,0,0,1,.378-0.305,0.966,0.966,0,0,1,.472-0.115,0.582,0.582,0,0,1,.432.173,0.669,0.669,0,0,1,.171.491,1.107,1.107,0,0,1-.113.527,1.714,1.714,0,0,1-.7.694,3.056,3.056,0,0,1-1.406.44,4.449,4.449,0,0,1,.234-0.967h0Zm11.863,3.5a1.423,1.423,0,0,0,.342-0.356L157.9,10.3a0.993,0.993,0,0,1-.532.322,0.1,0.1,0,0,1-.088-0.1,2.262,2.262,0,0,1,0-.444q0.021-.346.32-2.168a5.773,5.773,0,0,0,.1-0.952,1.735,1.735,0,0,0-.312-1.128,0.874,0.874,0,0,0-.349-0.264,1.212,1.212,0,0,0-.459-0.083,1.559,1.559,0,0,0-.52.093,3.136,3.136,0,0,0-1.4,1.113,1.486,1.486,0,0,0-.327-0.938,0.8,0.8,0,0,0-.325-0.205,1.373,1.373,0,0,0-.439-0.063,1.591,1.591,0,0,0-.52.093,3.159,3.159,0,0,0-1.45,1.059L151.7,5.6l-0.234-.117-1.182.254-0.088.435,0.484,0.288-0.635,4.7h0.952l0.5-3.686a4.037,4.037,0,0,1,.835-0.869,2.1,2.1,0,0,1,.437-0.259,1.149,1.149,0,0,1,.457-0.093,0.448,0.448,0,0,1,.342.112,0.529,0.529,0,0,1,.1.229,3.326,3.326,0,0,1,.034.6,10.289,10.289,0,0,1-.127,1.338L153.5,9l-0.273,2.163h0.962L154.5,8.694q0.108-.7.151-1.236a3.923,3.923,0,0,1,.787-0.849,2.115,2.115,0,0,1,.412-0.254,0.987,0.987,0,0,1,.415-0.093,0.405,0.405,0,0,1,.315.112,0.534,0.534,0,0,1,.11.225,2.263,2.263,0,0,1,.042.53,10.464,10.464,0,0,1-.162,1.384l-0.161,1a8.322,8.322,0,0,0-.117,1.172,0.509,0.509,0,0,0,.581.571,1.413,1.413,0,0,0,.84-0.352h0Zm5.373-.918a4.043,4.043,0,0,0,.821-2.393,2.531,2.531,0,0,0-.406-1.514,1.453,1.453,0,0,0-1.254-.6,1.789,1.789,0,0,0-1.416.718l0.087-.6-0.229-.117-1.279.254-0.088.386,0.532,0.249L158.861,13.7h0.928l0.346-2.519a3.62,3.62,0,0,0,.757.078,2.24,2.24,0,0,0,.815-0.166,3.027,3.027,0,0,0,1.377-1.1h0Zm-2.368-2.974a2.369,2.369,0,0,1,.259-0.293,1.594,1.594,0,0,1,1.108-.542,0.671,0.671,0,0,1,.6.383,2.158,2.158,0,0,1,.22,1.065,4.436,4.436,0,0,1-.21,1.345,3.867,3.867,0,0,1-.262.637,2.5,2.5,0,0,1-.375.542,1.7,1.7,0,0,1-.5.376,1.5,1.5,0,0,1-.676.139,1.12,1.12,0,0,1-.652-0.176Zm5.369,3.233,0.986-7.012L166.837,3.1l-1.28.205-0.1.405,0.6,0.21-0.9,6.3a2.35,2.35,0,0,0-.029.376,0.759,0.759,0,0,0,.134.508,0.605,0.605,0,0,0,.469.151,1.445,1.445,0,0,0,.808-0.356,1.191,1.191,0,0,0,.327-0.352l-0.151-.254a0.976,0.976,0,0,1-.528.322q-0.156,0-.1-0.371h0Zm4.9,0.351v0.069a0.536,0.536,0,0,0,.621.591,1.425,1.425,0,0,0,.791-0.3,0.955,0.955,0,0,0,.3-0.3l-0.151-.259a0.865,0.865,0,0,1-.383.225A0.181,0.181,0,0,1,172,10.533a0.44,0.44,0,0,1-.032-0.286l0.64-4.761-0.581.166a3.136,3.136,0,0,0-.992-0.171,2.434,2.434,0,0,0-.908.171,3.361,3.361,0,0,0-1.855,1.875,3.931,3.931,0,0,0-.376,1.621,2.567,2.567,0,0,0,.4,1.514,1.4,1.4,0,0,0,1.216.6A1.89,1.89,0,0,0,171,10.5Zm0.118-.893a2.565,2.565,0,0,1-.254.3,1.6,1.6,0,0,1-1.162.557,0.64,0.64,0,0,1-.581-0.41,1.7,1.7,0,0,1-.157-0.481,4.509,4.509,0,0,1-.053-0.791,3.72,3.72,0,0,1,.21-1.145,3.647,3.647,0,0,1,.271-0.627,2.372,2.372,0,0,1,.388-0.53,1.789,1.789,0,0,1,.51-0.366,1.531,1.531,0,0,1,.666-0.136,1.045,1.045,0,0,1,.611.161Zm4.274,1.484a2.224,2.224,0,0,0,1.1-.64l-0.088-.381a2.756,2.756,0,0,1-.449.263,1.988,1.988,0,0,1-.264.105,1.024,1.024,0,0,1-.305.041,0.31,0.31,0,0,1-.251-0.093,0.271,0.271,0,0,1-.061-0.136,1.7,1.7,0,0,1-.017-0.3,6.9,6.9,0,0,1,.083-0.8L175.533,6.2H176.8l0.1-.679h-1.279l0.166-1.274h-0.464a5.057,5.057,0,0,1-.649,1.3l-0.6.229-0.1.425h0.586l-0.444,3.535a5.74,5.74,0,0,0-.059.6v0.054a0.781,0.781,0,0,0,.894.874,1.518,1.518,0,0,0,.434-0.068h0Zm3.435-.9a1.131,1.131,0,0,1-.2-0.305,1.969,1.969,0,0,1-.122-0.359,1.777,1.777,0,0,1-.049-0.308c0-.081,0-0.151,0-0.21s0-.122.01-0.19a4.3,4.3,0,0,0,1.255-.254,5.208,5.208,0,0,0,.718-0.3,3.11,3.11,0,0,0,.64-0.423,2.118,2.118,0,0,0,.459-0.554,1.261,1.261,0,0,0,.175-0.628,1.48,1.48,0,0,0-.088-0.542,1.229,1.229,0,0,0-1.3-.737A2.345,2.345,0,0,0,178.855,6a3.1,3.1,0,0,0-.573.581,4.019,4.019,0,0,0-.442.735,4.345,4.345,0,0,0-.291.842,3.715,3.715,0,0,0-.112.691c-0.005.164-.007,0.316-0.007,0.457a2.332,2.332,0,0,0,.1.571,1.816,1.816,0,0,0,.967,1.2,2.122,2.122,0,0,0,.95.185,2.375,2.375,0,0,0,1.189-.352,2.2,2.2,0,0,0,.752-0.635l-0.225-.405a2.4,2.4,0,0,1-1.66.713,0.9,0.9,0,0,1-.684-0.293h0ZM178.709,7.41a3.819,3.819,0,0,1,.232-0.5,2.336,2.336,0,0,1,.3-0.435,1.4,1.4,0,0,1,.378-0.305,0.965,0.965,0,0,1,.471-0.115,0.582,0.582,0,0,1,.432.173,0.669,0.669,0,0,1,.171.491,1.107,1.107,0,0,1-.112.527,1.714,1.714,0,0,1-.7.694,3.056,3.056,0,0,1-1.406.44,4.449,4.449,0,0,1,.234-0.967h0Z"/>
</svg>
